<?xml version="1.0" encoding="utf-8" ?><svg xmlns="http://www.w3.org/2000/svg" xmlns:xlink="http://www.w3.org/1999/xlink" width="1024" height="1024" viewBox="0 0 1024 1024"><path d="M0 0L1024 0L1024 1024L0 1024L0 0Z"/><path fill="#FEFEFE" d="M251.314 164.185C261.226 163.367 277.246 163.882 287.704 163.904L351.734 163.932L560.75 163.894L707.038 163.865L746.531 163.856C756.472 163.856 769.287 163.373 778.777 165.258C801.805 170.024 822.043 183.64 835.134 203.176C851.196 227.277 850.378 244.421 850.296 271.721L850.264 314.87L850.223 465.291L850.317 569.45L850.367 599.118C850.379 608.819 850.749 618.553 848.821 628.116C839.712 673.317 806.569 686.647 772.206 709.436C763.478 705.926 748.022 698.142 739.95 693.513C751.952 685.685 765.131 678.418 777.357 670.84C786.217 665.348 794.632 661.185 802.366 653.984C810.145 646.858 816.073 637.946 819.639 628.017C824.811 613.827 823.541 600.794 823.507 586.01L823.465 544.473L823.441 410.652L823.466 303.479L823.555 268.014C823.57 262.075 823.815 253.807 823.414 248.03C822.846 240.303 820.85 232.75 817.525 225.753C809.858 209.555 796.037 198.414 779.337 192.492C773.909 190.629 768.222 189.628 762.485 189.524C748.731 189.187 733.972 189.465 720.128 189.468L639.518 189.488L400.023 189.502L301.504 189.503C264.381 189.462 230.975 183.391 208.081 220.075C196.932 237.94 199.014 253.57 199.04 273.55L199.031 315.302L199.058 452.501L199.066 558.846L199.044 591.157C199.039 611.822 198.274 626.225 210.046 644.415C219.552 659.105 231.556 665.188 245.997 673.892L276.645 692.424C267.677 697.356 257.098 702.418 247.859 707.02L222.646 691.622C215.935 687.506 208.874 683.394 202.684 678.615C185.867 665.631 175.485 645.475 173.128 624.502C172.236 616.573 172.503 606.951 172.499 598.779L172.495 560.222L172.522 429.671L172.574 302.195L172.544 265.505C172.54 257.101 172.259 247.176 173.34 239.012C175.38 223.995 181.457 209.813 190.923 197.979C205.731 179.1 227.478 166.932 251.314 164.185Z"/><path fill="#20F4F2" d="M488.503 301.853L679.753 301.843L722.386 301.846C729.521 301.84 746.323 301.301 752.625 302.887C754.28 305.062 753.565 366.886 753.633 375.072C745.722 383.999 736.171 393.514 727.854 402.171L681.94 449.811L659.874 472.561C655.617 476.942 647.763 485.928 642.875 488.74C641.199 488.67 641.172 488.504 639.786 487.62C638.448 483.26 638.955 462.244 638.966 456.456L639.014 408.742C624.674 408.637 610.335 408.609 595.995 408.66L596.018 568.354C611.467 578.788 628.546 587.514 643.973 598.037C645.534 599.102 647.623 601.045 648.366 602.812C644.828 609.018 635.597 618.998 630.624 624.776L603.397 656.555L545.559 723.272C537.454 732.602 529.472 742.11 521.345 751.424C520.171 752.77 517.226 755.921 515.607 756.438C514.581 756.765 513.459 756.586 512.424 756.397C507.296 752.968 500.124 744.028 495.83 739.092L473.77 713.525C446.942 682.294 420.369 650.844 394.055 619.179C399.845 617.331 402.984 616.291 407.285 611.592C425.228 633.464 443.399 655.146 461.798 676.635C478.483 696.503 496.705 718.607 514.125 737.739C525.59 725.749 538.132 709.843 549.225 697.039L628.032 605.994C618.316 599.811 608.527 593.745 598.666 587.796C593.697 584.788 585.353 580.089 580.877 576.755L581.006 395.378L516.867 330.939C507.713 321.693 497.697 310.706 488.503 301.853Z"/><path d="M525.854 317.036C532.079 317.642 542.987 317.336 549.562 317.337L592.878 317.324L738.198 317.285C737.838 334.214 738.039 351.874 737.997 368.866L695.968 413.148L654.073 456.384C654.008 443.823 654.011 431.261 654.082 418.7C654.091 412.838 654.895 399.291 652.354 394.67C649.177 392.463 607.555 393.522 600.39 393.263C576.827 367.727 550.231 342.195 525.854 317.036Z"/><path fill="#20F4F2" d="M727.919 358.488L728.188 358.951C727.563 360.917 723.712 365.636 722.352 367.541C710.345 384.349 694.885 393.052 676.495 401.427L676.371 401.344C676.479 400.596 684.603 395.337 686.132 394.283C701.455 383.716 714.21 370.9 727.919 358.488Z"/><path fill="#FEFEFE" d="M274.551 302.484C290.189 301.604 310.757 302.291 326.723 302.334L425.831 302.256C438.723 302.184 454.277 302.597 466.833 302.12C472.083 307.07 477.146 312.386 482.185 317.564L289.855 317.514C289.756 334.173 289.112 354.503 289.717 370.853C317.392 398.963 344.827 427.309 372.017 455.888C372.022 435.384 371.839 414.226 372.189 393.765L447.174 393.884L446.98 575.416C440.593 579.18 408.851 598.629 404.459 599.682C402.831 600.867 400.846 601.762 400.421 603.266C401.039 604.221 401.111 604.337 401.854 605.231C404.073 607.522 405.33 609.097 407.285 611.592C402.984 616.291 399.845 617.331 394.055 619.179L388.358 612.325L377.268 598.867C380.366 597.075 385.332 594.002 388.475 592.707C401.677 583.786 418.022 575.52 431.819 566.422C431.092 528.971 432.23 490.899 432.021 453.402C431.941 439.119 432.723 422.935 432.149 408.916L387.158 409C387.214 436.245 387.002 463.49 386.524 490.732C381.106 486.091 374.971 479.722 369.843 474.614C358.244 462.923 346.741 451.138 335.335 439.259L296.054 398.781C289.165 391.694 280.94 383.637 274.409 376.419C274.221 352.276 274.017 326.569 274.551 302.484Z"/><path fill="#6DF8F4" d="M401.854 605.231C404.073 607.522 405.33 609.097 407.285 611.592C402.984 616.291 399.845 617.331 394.055 619.179L388.358 612.325C392.157 612.187 400.093 608.35 401.854 605.231Z"/><path fill="#20F4F2" d="M377.268 598.867C380.366 597.075 385.332 594.002 388.475 592.707C387.993 594.383 385.803 595.364 384.074 596.309C382.308 597.26 380.532 598.194 378.748 599.111C380.176 600.807 383.863 605.398 385.373 606.528C387.249 606.488 393.843 606.488 395.222 606.031C396.564 603.767 396.934 602.408 397.783 599.948C399.103 600.529 398.665 600.25 399.692 601.258C402.117 600.771 401.787 599.55 404.459 599.682C402.831 600.867 400.846 601.762 400.421 603.266C401.039 604.221 401.111 604.337 401.854 605.231C400.093 608.35 392.157 612.187 388.358 612.325L377.268 598.867Z"/><path fill="#FEFEFE" d="M442.614 253.227C443.007 253.209 443.4 253.193 443.793 253.179C466.215 252.378 492.596 253.144 515.406 253.112L556.153 253.081C561.285 253.081 579.315 252.166 583.946 254.625C586.813 256.147 585.998 266.857 585.903 270.599C589.103 270.686 593.213 270.799 596.346 270.576C610.549 269.563 611.867 271.874 611.424 285.564C618.139 285.536 656.203 284.418 659.425 286.446C660.536 287.145 661.184 288.21 661.426 289.49C661.662 290.743 661.237 291.928 660.355 292.825C658.329 294.883 618.369 293.963 611.858 293.948L467.318 293.995L420.265 294.042C417.029 294.05 413.693 294.151 410.475 294.094C405.352 294.004 395.798 296.219 393.954 289.702C395.311 283.59 409.174 285.612 414.569 285.698C413.961 265.195 420.559 270.579 438.315 270.671C438.129 264.755 435.793 255.246 442.614 253.227Z"/><path d="M423.358 278.593L602.85 278.805L602.952 285.658C583.898 286.627 558.091 285.832 538.349 285.833L423.172 285.798L423.358 278.593Z"/><path d="M446.673 261.537L576.805 261.502L576.774 270.587L446.681 270.497L446.673 261.537Z"/><path fill="#FEFEFE" d="M396.014 767.849C402.856 770.634 419.507 780.344 426.64 784.255L483.505 815.532C492.552 820.551 503.487 827.182 512.59 831.677C518.533 828.904 531.931 820.474 537.903 816.92L585.866 788.14C595.261 782.477 607.737 774.668 617.395 769.802L617.308 795.06L617.165 802.802C601.967 811.186 586.622 820.678 571.972 829.142C543.855 845.387 517.982 867.404 485.014 847.962C480.633 845.378 475.633 842.717 471.142 840.176L438.736 821.885L412.37 807.24C407.164 804.353 400.529 800.926 395.801 797.544L396.014 767.849Z"/><path fill="#FEFEFE" d="M394.386 414.988L424.572 415.016C425.166 463.388 424.487 513.139 424.462 561.638C421.296 563.548 417.525 565.546 414.262 567.381C407.672 571.184 400.724 575.362 393.937 578.692L394.019 473.707C394.036 454.607 393.764 434.018 394.386 414.988Z"/><path d="M402.379 422.978L416.495 422.964L416.397 557.095L411.783 559.807C408.509 561.78 405.337 563.541 401.984 565.38C402.401 518.074 401.568 470.2 402.379 422.978Z"/><path fill="#FEFEFE" d="M601.991 415.056L631.002 415.036C631.133 469.257 630.964 523.478 630.496 577.697C621.746 573.068 610.286 566.746 601.99 561.46C601.49 513.165 601.881 463.427 601.991 415.056Z"/><path d="M610.254 423.058L622.863 422.983C622.967 428.138 622.956 433.47 622.904 438.628C622.477 480.515 623.263 522.614 622.743 564.483C619.869 563.341 612.941 558.774 610.114 556.902C609.544 525.605 610.46 493.986 610.094 462.654C609.942 449.644 609.886 436.042 610.254 423.058Z"/><path fill="#FEFEFE" d="M312.106 714.593C316.015 716.556 324.529 722.064 328.518 724.492C338.947 730.771 349.309 737.161 359.602 743.66C359.64 753.673 359.609 763.686 359.509 773.698C355.28 770.721 347.839 766.535 343.205 763.74C326.314 753.316 301.46 739.537 285.921 728.545C294.148 723.841 303.658 719.07 312.106 714.593Z"/><path fill="#FEFEFE" d="M699.443 718.941C705.174 722.397 720.334 729.263 727.224 732.856C710.958 742.612 694.851 753.308 678.292 763.24C672.163 766.969 666.062 770.743 659.99 774.563L660.013 743.604C672.778 735.18 686.442 727.227 699.443 718.941Z"/><path fill="#20F4F2" d="M562.676 655.86L567.489 660.761C564.287 664.942 560.033 669.592 556.525 673.609C541.779 690.495 527.62 708.195 512.589 724.802C508.916 720.933 505.097 716.32 501.608 712.238C499.45 709.79 495.936 706.638 495.893 703.593C497.565 702.011 500.454 702.137 502.024 703.751C505.397 707.219 508.678 711.179 511.899 714.76C527.991 695.066 545.988 675.255 562.676 655.86Z"/><path fill="#FEFEFE" d="M299.528 326.165C318.666 326.089 337.803 326.119 356.941 326.253C361.54 326.264 380.122 325.994 383.7 326.864C384.91 328.733 384.764 329.101 383.804 330.919C380.765 333.037 375.969 332.158 372.265 332.148L351.75 332.136L305.387 332.206C305.38 337.302 305.683 359.68 304.728 363.385C303.352 364.075 301.166 363.881 299.525 363.88C299.395 351.309 299.396 338.736 299.528 326.165Z"/><path fill="#20F4F2" d="M602.72 608.492C605.423 608.377 608.28 608.358 610.998 608.295C601.787 619.329 590.985 632.123 581.363 642.63C580.512 643.524 580.873 643.25 579.74 643.753C577.859 643.464 576.239 641.99 574.647 640.83C582.749 630.645 593.991 618.483 602.72 608.492Z"/></svg>